# xmcd
#
# Track frame offsets: 
#        150
#        13345
#        31387
#        42707
#        55347
#        73610
#        84129
#        93972
#        112027
#        123195
#        134090
#        152780
#        163490
#        175692
#        190810
#        202800
#
# Disc length: 2893 seconds
#
# Revision: 9
# Processed by: cddbd v1.5.2PL0 Copyright (c) Steve Scherf et al.
# Submitted via: ExactAudioCopy v1.3
#
DISCID=df0b4b10
DTITLE=Various Artist - Dust My Broom - Classic Blues
DYEAR=1997
DGENRE=Blues
TTITLE0=Elmore James - Dust my broom
TTITLE1=B.B. King - Everyday (I have the blues)
TTITLE2=Billie Holiday - I got it bad and that ain't good
TTITLE3=Gatemouth Moore - Boogie woogie papa
TTITLE4=Nat King Cole Trio - Cole's Bob blues
TTITLE5=Ray Charles - I wonder who's kissing her now
TTITLE6=John Lee Hooker - Dimples
TTITLE7=Lightning Hopkins - Shake that thing
TTITLE8=Elmore James - Look on yonder wall
TTITLE9=B.B. King - Catfish blues
TTITLE10=Billie Holiday - Fine and mellow
TTITLE11=Joe Simon - Say
TTITLE12=Muddy Waters - Hobo blues
TTITLE13=John Lee Hooker - Tupelo
TTITLE14=Roy Milton - Early in the morning
TTITLE15=Leadbelly - In New Orleans
EXTD=YEAR: 1997 ID3G: 0
EXTT0=
EXTT1=
EXTT2=
EXTT3=
EXTT4=
EXTT5=
EXTT6=
EXTT7=
EXTT8=
EXTT9=
EXTT10=
EXTT11=
EXTT12=
EXTT13=
EXTT14=
EXTT15=
PLAYORDER=
